<?xml version="1.0" standalone="no"?>
<!DOCTYPE svg PUBLIC "-//W3C//DTD SVG 20010904//EN"
 "http://www.w3.org/TR/2001/REC-SVG-20010904/DTD/svg10.dtd">
<svg version="1.0" xmlns="http://www.w3.org/2000/svg"
 width="512.000000pt" height="512.000000pt" viewBox="0 0 512.000000 512.000000"
 preserveAspectRatio="xMidYMid meet">
<metadata>
Created by potrace 1.14, written by Peter Selinger 2001-2017
</metadata>
<g transform="translate(0.000000,512.000000) scale(0.100000,-0.100000)"
fill="#000000" stroke="none">
<path d="M1713 3916 l-28 -24 -3 -191 -3 -191 -175 0 c-265 0 -264 1 -264
-260 l0 -180 -175 0 c-186 0 -222 -7 -245 -49 -7 -13 -10 -296 -10 -839 l0
-820 31 -26 31 -26 309 0 309 0 0 435 0 435 95 0 95 0 0 -435 0 -435 230 0
230 0 0 435 0 435 95 0 95 0 0 -435 0 -435 233 2 232 3 0 433 0 432 98 0 97 0
0 -435 0 -435 230 0 230 0 0 435 0 435 95 0 95 0 0 -435 0 -435 309 0 c297 0
309 1 335 21 l26 20 0 840 0 839 -32 20 c-30 18 -51 20 -210 20 l-178 0 0 175
c0 265 0 265 -264 265 l-175 0 -3 190 c-3 182 -4 190 -26 212 l-23 23 -829 3
-828 2 -29 -24z"/>
</g>
</svg>
